<?xml version="1.0" encoding="utf-8"?>
<!-- Generator: Adobe Illustrator 25.2.1, SVG Export Plug-In . SVG Version: 6.00 Build 0)  -->
<svg version="1.1" id="Layer_1" xmlns="http://www.w3.org/2000/svg" xmlns:xlink="http://www.w3.org/1999/xlink" x="0px" y="0px"
	 viewBox="0 0 106 44" style="enable-background:new 0 0 106 44;" xml:space="preserve">
<style type="text/css">
	.st0{fill:url(#SVGID_1_);}
	.st1{fill:#FFFFFF;}
</style>
<g>
	<linearGradient id="SVGID_1_" gradientUnits="userSpaceOnUse" x1="-5.1585" y1="30.6201" x2="28.5055" y2="11.1842">
		<stop  offset="0" style="stop-color:#8860D0"/>
		<stop  offset="0.1938" style="stop-color:#8860D0"/>
		<stop  offset="0.775" style="stop-color:#5580E9"/>
	</linearGradient>
	<polygon class="st0" points="0,43.95 0,31.89 8.65,26.41 8.65,16.36 17.3,10.88 17.3,4.13 2.24,13.67 2.24,22.94 0,22.94 0,12.43 
		19.54,0.05 19.54,12.11 10.89,17.59 10.89,27.64 2.24,33.12 2.24,39.87 17.3,30.33 17.3,21.06 19.54,21.06 19.54,31.57 	"/>
	<g>
		<g>
			<path class="st1" d="M42.05,26.84c0,3.29-2.97,5.76-6.91,5.76c-4.22,0-7.1-2.31-7.52-6.04l-0.07-0.62h2.23l0.07,0.48
				c0.35,2.51,2.44,4.13,5.32,4.13c2.72,0,4.62-1.46,4.62-3.55c0-2.19-1.15-3.18-4.93-4.22c-3.91-1.05-6.34-2.39-6.34-5.85
				c0-3.16,2.86-5.54,6.66-5.54c3.62,0,6.15,2.27,6.6,5.92l0.08,0.63h-2.24l-0.07-0.48c-0.37-2.52-2.04-4.02-4.45-4.02
				c-2.14,0-4.31,1.14-4.31,3.33c0,2.07,0.99,2.87,4.82,3.93C39.47,21.75,42.05,23.19,42.05,26.84z"/>
		</g>
		<g>
			<polygon class="st1" points="61.42,11.4 61.42,13.45 53.85,13.45 53.85,32.6 51.63,32.6 51.63,13.45 44.09,13.45 44.09,11.4 			
				"/>
		</g>
		<g>
			<rect x="66.58" y="11.4" class="st1" width="2.23" height="21.2"/>
		</g>
		<g>
			<path class="st1" d="M106,26.84c0,3.29-2.97,5.76-6.91,5.76c-4.22,0-7.1-2.31-7.52-6.04l-0.07-0.62h2.24l0.07,0.48
				c0.35,2.51,2.44,4.13,5.32,4.13c2.72,0,4.62-1.46,4.62-3.55c0-2.19-1.15-3.18-4.93-4.22c-3.91-1.05-6.34-2.39-6.34-5.85
				c0-3.16,2.86-5.54,6.66-5.54c3.63,0,6.16,2.27,6.6,5.92l0.08,0.63h-2.24l-0.07-0.48c-0.37-2.52-2.04-4.02-4.45-4.02
				c-2.14,0-4.31,1.14-4.31,3.33c0,2.07,0.99,2.87,4.82,3.93C103.42,21.75,106,23.19,106,26.84z"/>
		</g>
		<path class="st1" d="M88.11,13.42c-0.93-1.01-2.29-1.66-4.02-1.88c-1.05-0.13-2.01-0.15-2.89-0.15h-5.45v21.2h2.22v-19.1h3.28
			c0.93,0,1.73,0.02,2.58,0.14c2.25,0.3,3.38,1.59,3.38,3.84c0,2.98-1.84,3.88-3.39,4.1c-0.85,0.12-1.64,0.14-2.57,0.14H80.2v2.08h1
			c1.04,0,1.93,0,2.9-0.12c3.4-0.46,5.43-2.78,5.43-6.2C89.53,15.81,89.04,14.43,88.11,13.42z"/>
	</g>
</g>
</svg>
